# xmcd
# Track frame offsets:
# 150
# 9590
# 20237
# 33562
# 44367
# 54665
# 64712
# 78137
# 92575
# 103615
#
# Disc length: 1525 seconds
# Revision: 0
# Processed by: cddbd v1.4PL0 Copyright (c) Steve Scherf et al.
# Submitted via: VisiTrax 2.9.3.171 - For more info visit www.synapsa.com
#
DISCID=7905f30a
DTITLE=Mickey Gilley - Classic Country
DYEAR=1997
DGENRE=Country
TTITLE0=Susie Q
TTITLE1=I'm To Blame
TTITLE2=That Heart Belongs To Me
TTITLE3=A New Way To Live
TTITLE4=That's How It's Got To Be
TTITLE5=Night After Night
TTITLE6=She's Still Got A Hold On You
TTITLE7=I'll Make It All Up To You
TTITLE8=It's Just A Matter Of Making Up Your Mind
TTITLE9=There's No One Like You
EXTD=1997 Direct Source Special Products Inc.\nCC 75272
EXTT0=
EXTT1=
EXTT2=
EXTT3=
EXTT4=
EXTT5=
EXTT6=
EXTT7=
EXTT8=
EXTT9=
PLAYORDER=
